<?xml version="1.0" encoding="UTF-8" standalone="no"?>
<svg
   width="38"
   height="39"
   viewBox="0 0 38 39"
   version="1.1"
   enable-background="new 0 0 76.00 76.00"
   xml:space="preserve"
   id="svg4"
   sodipodi:docname="present-svgrepo-com.svg"
   inkscape:version="1.2.2 (732a01da63, 2022-12-09)"
   xmlns:inkscape="http://www.inkscape.org/namespaces/inkscape"
   xmlns:sodipodi="http://sodipodi.sourceforge.net/DTD/sodipodi-0.dtd"
   xmlns="http://www.w3.org/2000/svg"
   xmlns:svg="http://www.w3.org/2000/svg"><defs
   id="defs8" /><sodipodi:namedview
   id="namedview6"
   pagecolor="#ffffff"
   bordercolor="#000000"
   borderopacity="0.25"
   inkscape:showpageshadow="2"
   inkscape:pageopacity="0.0"
   inkscape:pagecheckerboard="0"
   inkscape:deskcolor="#d1d1d1"
   showgrid="false"
   inkscape:zoom="6.8289474"
   inkscape:cx="16.327553"
   inkscape:cy="20.061657"
   inkscape:window-width="1366"
   inkscape:window-height="705"
   inkscape:window-x="-8"
   inkscape:window-y="-8"
   inkscape:window-maximized="1"
   inkscape:current-layer="svg4" />
	<path
   fill="#000000"
   fill-opacity="1"
   stroke-linejoin="round"
   d="m 15,10 h 8 V 39 H 15 Z M 0,10 h 14 v 9 H 0 Z m 24,0 h 14 v 9 H 24 Z M 2,20 H 14 V 39 H 2 Z m 22,0 H 36 V 39 H 24 Z M 18.75,8.9937 C 16.3357,8.9455 6,7.5328 6,4 6,0 9,0 10,0 10.9728,0 15.9672,4.5352 19.0001,4.7413 22.0329,4.535 27.0272,0 28,0 29,0 32,0 32,4 32,7.5328 21.6643,8.9455 19.25,8.9937 Z M 21.5,6.5 c 0,0 8,-1.25 8,-3.25 0,-2 -8,3.25 -8,3.25 z m -5,0 c 0,0 -8,-5.25 -8,-3.25 0,2 8,3.25 8,3.25 z"
   id="path2"
   style="fill:#803300" />
</svg>
