<?xml version="1.0" encoding="UTF-8" standalone="no"?>
<!-- Svg Vector Icons : http://www.onlinewebfonts.com/icon -->

<svg
   version="1.1"
   x="0px"
   y="0px"
   viewBox="0 0 256 256"
   enable-background="new 0 0 256 256"
   xml:space="preserve"
   id="svg48"
   sodipodi:docname="tux.svg"
   inkscape:version="1.2.2 (732a01da63, 2022-12-09)"
   xmlns:inkscape="http://www.inkscape.org/namespaces/inkscape"
   xmlns:sodipodi="http://sodipodi.sourceforge.net/DTD/sodipodi-0.dtd"
   xmlns="http://www.w3.org/2000/svg"
   xmlns:svg="http://www.w3.org/2000/svg"><defs
   id="defs52" /><sodipodi:namedview
   id="namedview50"
   pagecolor="#ffffff"
   bordercolor="#000000"
   borderopacity="0.25"
   inkscape:showpageshadow="2"
   inkscape:pageopacity="0.0"
   inkscape:pagecheckerboard="0"
   inkscape:deskcolor="#d1d1d1"
   showgrid="false"
   inkscape:zoom="1.0136719"
   inkscape:cx="159.81503"
   inkscape:cy="75.961464"
   inkscape:window-width="1366"
   inkscape:window-height="705"
   inkscape:window-x="-8"
   inkscape:window-y="-8"
   inkscape:window-maximized="1"
   inkscape:current-layer="svg48" />
<metadata
   id="metadata28"> Svg Vector Icons : http://www.onlinewebfonts.com/icon </metadata>
<g
   id="g46"
   transform="matrix(0.88196118,0,0,0.88196118,15.102075,15.106351)"><g
     id="g44"><g
       id="g42"><path
         id="path40"
         d="m 123.9,175.9 c -3.2,0.7 -7.3,4.7 -8.2,7.9 -0.8,2.8 -0.4,5.7 1.1,8.6 3,5.8 11.2,7.6 16.6,3.7 2.5,-1.8 4.8,-6.1 4.8,-8.8 0,-5 -3.6,-9.9 -8.2,-11.3 -2.9,-0.9 -2.9,-0.9 -6.1,-0.1 z M 121.7,131 c -7.8,3.9 -8.5,14.5 -1.4,19.5 4,2.7 8.7,2.7 12.7,0.1 2.9,-1.9 4.7,-5 5.1,-8.8 0.6,-5.9 -4.5,-11.5 -10.7,-12 -2.3,-0.3 -3.3,0 -5.7,1.2 z m 0.2,-46 c -4.7,2.1 -7.4,7.7 -6.1,12.8 2.1,9.1 13.5,11.8 19.8,4.7 3.6,-4.2 3.6,-10.1 -0.1,-14.6 -2.1,-2.5 -5.3,-4 -8.7,-4 -1.5,0.1 -3.7,0.6 -4.9,1.1 z m 46.4,68.6 c -13.3,50.5 -24,92.4 -24,93.2 0,2.8 3.8,4.7 6,2.9 0.4,-0.3 16.9,-20.8 36.4,-45.5 19.6,-24.6 36.1,-45.3 36.6,-46 0.9,-1.1 0.8,-1.4 -6.1,-11.2 -3.8,-5.6 -6.8,-10.3 -6.5,-10.5 0.3,-0.2 5.4,-2.5 11.5,-5 l 11.1,-4.7 6.5,-12.1 c 4.7,-8.7 6.4,-12.4 6.2,-13.2 -1.1,-4.2 -16.7,-21.1 -24.9,-26.8 -7.9,-5.6 -20,-11.2 -27,-12.5 l -1.9,-0.3 z M 59.1,63 C 47.3,66.2 35.4,73.3 25.2,83 18.9,89.1 10,100.3 10,102.2 c 0,0.4 2.9,6.1 6.5,12.7 l 6.5,12 11.1,4.7 c 6.1,2.6 11.3,4.8 11.5,5 0.3,0.2 -2.7,4.9 -6.5,10.5 -6,8.6 -6.9,10.2 -6.3,11 0.4,0.4 16.8,21.1 36.6,45.9 19.7,24.8 36.2,45.4 36.7,45.7 2.2,1.8 6,-0.1 6,-2.8 C 112.1,245.7 64.5,63.3 63.9,62.3 63.6,61.9 63.5,61.9 59.1,63 Z M 84.9,6.6 c -1.4,1.6 -3,6.1 -3.9,11.8 -1.1,6.3 -1.2,23.5 -0.3,30.1 1.2,8.4 3.6,14.1 6,14.1 0.5,0 9.7,-3.4 20.2,-7.6 10.5,-4.2 19.4,-7.6 19.8,-7.6 0.4,0 9.2,3.4 19.8,7.6 10.5,4.2 19.6,7.6 20.1,7.6 4,0 6.7,-11.5 6.7,-28.5 0,-16.7 -2.7,-28.5 -6.5,-28.5 -0.5,0 -9.4,3.4 -19.9,7.6 -10.5,4.1 -19.5,7.6 -20.1,7.6 -0.6,0 -9.7,-3.4 -20.1,-7.6 C 96.2,9 87.2,5.6 86.7,5.6 86.2,5.6 85.4,6 84.9,6.6 Z M 273.13892,128.00297 A 145.1311,145.1311 0 0 1 128.00782,273.13407 145.1311,145.1311 0 0 1 -17.123288,128.00297 145.1311,145.1311 0 0 1 128.00782,-17.128136 145.1311,145.1311 0 0 1 273.13892,128.00297 Z"
         style="fill:#803300" /></g></g></g>
</svg>
