<?xml version="1.0" encoding="UTF-8" standalone="no"?>
<!-- Creator: CorelDRAW 2021 (64-Bit) -->

<svg
   xml:space="preserve"
   width="63.709057mm"
   height="13.916071mm"
   version="1.1"
   style="clip-rule:evenodd;fill-rule:evenodd;image-rendering:optimizeQuality;shape-rendering:geometricPrecision;text-rendering:geometricPrecision"
   viewBox="0 0 6339.8556 1384.8269"
   id="svg851"
   sodipodi:docname="firulete2.svg"
   inkscape:version="1.2.2 (732a01da63, 2022-12-09)"
   xmlns:inkscape="http://www.inkscape.org/namespaces/inkscape"
   xmlns:sodipodi="http://sodipodi.sourceforge.net/DTD/sodipodi-0.dtd"
   xmlns:xlink="http://www.w3.org/1999/xlink"
   xmlns="http://www.w3.org/2000/svg"
   xmlns:svg="http://www.w3.org/2000/svg"><sodipodi:namedview
   id="namedview853"
   pagecolor="#ffffff"
   bordercolor="#000000"
   borderopacity="0.25"
   inkscape:showpageshadow="2"
   inkscape:pageopacity="0.0"
   inkscape:pagecheckerboard="0"
   inkscape:deskcolor="#d1d1d1"
   inkscape:document-units="mm"
   showgrid="false"
   inkscape:zoom="2.5457796"
   inkscape:cx="132.96517"
   inkscape:cy="19.247542"
   inkscape:window-width="1366"
   inkscape:window-height="705"
   inkscape:window-x="-8"
   inkscape:window-y="-8"
   inkscape:window-maximized="1"
   inkscape:current-layer="Capa_x0020_1" />
 <defs
   id="defs834"><linearGradient
   inkscape:collect="always"
   id="linearGradient976"><stop
     style="stop-color:#c95300;stop-opacity:1;"
     offset="0"
     id="stop972" /><stop
     style="stop-color:#ffc96f;stop-opacity:1;"
     offset="0.49379596"
     id="stop1003" /><stop
     style="stop-color:#c95300;stop-opacity:1;"
     offset="1"
     id="stop974" /></linearGradient>
  <style
   type="text/css"
   id="style832">
   <![CDATA[
    .fil0 {fill:#9B5521;fill-rule:nonzero}
   ]]>
  </style>
 <linearGradient
   inkscape:collect="always"
   xlink:href="#linearGradient976"
   id="linearGradient978"
   x1="47.049999"
   y1="624.60999"
   x2="6339.875"
   y2="624.60999"
   gradientUnits="userSpaceOnUse" /><linearGradient
   inkscape:collect="always"
   xlink:href="#linearGradient976"
   id="linearGradient3049"
   gradientUnits="userSpaceOnUse"
   x1="47.049999"
   y1="624.60999"
   x2="6339.875"
   y2="624.60999" /><linearGradient
   inkscape:collect="always"
   xlink:href="#linearGradient976"
   id="linearGradient3051"
   gradientUnits="userSpaceOnUse"
   x1="47.049999"
   y1="624.60999"
   x2="6339.875"
   y2="624.60999" /><linearGradient
   inkscape:collect="always"
   xlink:href="#linearGradient976"
   id="linearGradient3053"
   gradientUnits="userSpaceOnUse"
   x1="47.049999"
   y1="624.60999"
   x2="6339.875"
   y2="624.60999" /><linearGradient
   inkscape:collect="always"
   xlink:href="#linearGradient976"
   id="linearGradient3055"
   gradientUnits="userSpaceOnUse"
   x1="47.049999"
   y1="624.60999"
   x2="6339.875"
   y2="624.60999" /><linearGradient
   inkscape:collect="always"
   xlink:href="#linearGradient976"
   id="linearGradient3057"
   gradientUnits="userSpaceOnUse"
   x1="47.049999"
   y1="624.60999"
   x2="6339.875"
   y2="624.60999" /><linearGradient
   inkscape:collect="always"
   xlink:href="#linearGradient976"
   id="linearGradient3059"
   gradientUnits="userSpaceOnUse"
   x1="47.049999"
   y1="624.60999"
   x2="6339.875"
   y2="624.60999" /></defs>
 <g
   id="Capa_x0020_1"
   inkscape:label="Capa 1"
   inkscape:groupmode="layer"
   transform="translate(-0.00938572,0.00999983)">
  <metadata
   id="CorelCorpID_0Corel-Layer" />
  <g
   id="_1687746896080"
   style="fill:url(#linearGradient978);fill-opacity:1"
   transform="matrix(1,0,0,-1,0,1384.8069)">
   <path
   class="fil0"
   d="m 597.77,1006.05 c 2.61,-3.76 8.81,-4.52 19.32,-1.53 5.43,1.3 11.32,4.17 17.85,8.56 3.31,2.17 6.98,4.5 10.6,7.35 3.37,3.06 6.91,6.46 10.63,10.22 29.32,29.35 58.44,93 42.3,174.27 -8.4,39.75 -27.72,85.36 -69.26,121.51 -39.97,35.72 -96.41,56.56 -155.74,58.28 -59.3,1.27 -121.99,-15.49 -177.57,-53.89 -56.56,-38.96 -98.36,-101.12 -117.9,-169.97 -19.89,-69.13 -19.23,-144.98 2.33,-218.31 21.96,-73.52 64.8,-140.21 119.64,-195.46 110.13,-110.64 263.35,-179.71 428.19,-204.37 165.26,-24.71 339.81,-5.6 509.08,43 170.42,48.12 333.25,130.37 492.39,220.96 159.47,90.89 309.79,186.29 461.01,266.52 150.77,79.73 302.98,148.77 456.96,166.56 76.61,8.88 152.39,4.97 221.72,-15.98 69.32,-20.5 132.18,-55.22 181.27,-101.06 48.5,-45.96 83.16,-103.88 95.19,-163.38 5.7,-30 6.62,-60.31 3.79,-89.65 -3.57,-29.32 -11.05,-57.36 -21.3,-83.52 -10.96,-25.91 -25.19,-49.37 -41.48,-70.23 -17.35,-19.82 -36.21,-37.36 -57.38,-50.08 -21.17,-12.36 -43.71,-21.55 -66.21,-25.91 -22.57,-4.36 -45.36,-4.15 -66.81,-0.77 -42.97,6.75 -80.44,26.68 -105.04,53.28 -24.61,27.09 -36.41,58.98 -34.76,88.9 0.23,30.07 11.18,56.3 23.24,76.29 12.41,20.15 27.66,33.93 41.35,42.5 27.72,17.39 47.46,16.86 47.14,21.38 0.03,1.72 -4.62,3.09 -14.23,3.98 -9.48,0.45 -24.18,-1.08 -41.73,-8.69 -17.53,-7.41 -37.46,-21.7 -54.16,-44.14 -16.33,-22.38 -31.27,-52.58 -33.56,-89.76 -3.98,-37.02 10.31,-80.87 40.1,-114.49 29.98,-33.96 74.73,-58.18 125.54,-66.77 25.43,-4.27 52.54,-4.72 79.92,0.45 27.44,5.15 54.09,15.81 79.35,30.59 25.18,15.09 47.3,35.65 67.19,58.75 18.81,24 34.92,50.83 47.14,80.15 11.52,29.54 19.8,61.04 23.58,94.02 3.08,32.98 1.94,67.12 -4.78,101.24 -14.32,68.78 -53.38,132.28 -106.85,182.76 -54.02,50.16 -121.93,87.28 -196.23,109.3 -74.44,22.56 -155.83,26.83 -236.2,17.91 -80.71,-8.88 -160.98,-31 -239.57,-60.37 -78.68,-29.54 -155.88,-65.96 -233.06,-105.14 C 2016.37,1032.75 1863.15,940.68 1702.72,855.57 1542.44,770.55 1381.41,696.77 1218,657.59 1055.2,617.55 891.34,607.74 744.1,636.26 c -73.52,14.13 -142.5,37.78 -204.35,69.83 -61.65,32.72 -116.49,72.06 -158.94,118.56 -42.79,45.78 -73.27,98.29 -87.5,150.37 -14.26,52.25 -13.62,106.63 0.16,152.32 13.52,45.94 39.24,83.36 71.36,106.12 32.72,23.71 72.35,36.03 107.92,36.92 35.57,0.64 67.48,-8.88 90.15,-25.47 22.47,-15.21 37.91,-39.73 47.3,-63.81 9.64,-24.36 12.26,-48.71 11.9,-69.49 -0.22,-21.08 -4.84,-38.45 -9.29,-52.77 -9.61,-28.39 -20.85,-44.78 -15.08,-52.83 z"
   id="path837"
   style="fill:url(#linearGradient3049);fill-opacity:1" />
   <path
   class="fil0"
   d="m 1.83,751.22 c -3.18,-1.07 -2.27,-13.15 3.24,-35.52 6.82,-21.73 18.53,-53.99 41.98,-91.09 23.17,-37.14 57.93,-78.97 105.64,-118.95 23.74,-20.08 50.8,-39.59 81.19,-57.38 30.23,-18.02 63.63,-34.69 100.13,-48.54 72.93,-28 156.85,-45.71 247.25,-51.19 90.44,-5.6 186.84,0.65 286.34,15.44 99.46,15.31 202.65,37.12 308.07,65.03 105.57,27.5 213.22,62.19 320.61,105.16 107.67,42.27 210.07,90.46 306.55,141.84 96.38,51.81 185.02,109.23 269.69,162.17 84.6,53.15 165.76,101.62 244.75,139.83 78.87,38.67 155.27,66.24 227.34,81.83 71.8,16.52 138.58,20.91 196.57,19.14 58.09,-1.92 107.48,-11.27 146.73,-22.57 9.99,-2.39 19.17,-5.45 27.68,-8.54 8.57,-3.06 16.85,-5.41 24.19,-8.33 14.49,-6.28 27.44,-10.61 37.41,-15.13 19.96,-9.07 31.73,-12.54 33.68,-9.73 1.94,2.8 -6.11,11.77 -23.9,26.41 -8.92,7.29 -21.14,14.42 -35.43,23.4 -7.23,4.26 -15.5,7.96 -24.16,12.32 -8.69,4.39 -18.11,8.69 -28.45,12.32 -40.68,16.07 -93.42,29.35 -155.49,33.35 -61.97,3.86 -133.2,-0.25 -208.89,-18.04 -75.86,-16.87 -156.07,-47.59 -235.83,-89.5 C 2218.51,973.41 2137.89,921.28 2055.23,864.69 1972.38,808.26 1886.97,747.56 1793.78,691.99 1700.5,636.64 1600.33,584.61 1493.35,541.54 1386.59,497.93 1278.99,463.81 1173.51,437.55 1068.02,411.2 963.91,396.4 864.89,386.47 c -99.08,-9.26 -193.61,-10.95 -280.7,-2.01 -87.02,8.69 -166.47,28.04 -234.42,55.32 -34.09,13.47 -65.31,29.32 -93.64,46.15 -28.52,16.55 -54.02,34.44 -76.64,52.58 -45.36,36.22 -79.57,73.05 -104.34,105.61 -25.05,32.46 -40.48,60.5 -52.32,79.15 -10.51,19.2 -17.76,29.06 -21.01,27.97 z"
   id="path839"
   style="fill:url(#linearGradient3051);fill-opacity:1" />
   <path
   class="fil0"
   d="m 2311.68,572.48 c -0.6,-1.46 0.71,-3.5 4.31,-6.24 3.5,-3.14 9.63,-5.63 18.71,-7.45 17.96,-2.92 47.55,5.96 69.77,31.73 11.22,12.64 21.3,28.81 27.85,48.67 6.46,19.76 9.67,43.8 3.46,69.89 -5.81,25.03 -19.76,49.63 -41.15,69.71 -21.36,19.87 -49.62,33.96 -80.93,39.57 -30.92,5.51 -66.68,2.26 -98.17,-12.44 -31.66,-14.17 -58.81,-37.69 -79.77,-65.63 -41.47,-56.09 -62.75,-130.41 -51.27,-207.22 6.02,-38.28 21.67,-76.55 46.5,-107.89 24.6,-31.74 57.33,-57.69 94.18,-74.33 36.7,-17.29 77,-25.9 117.67,-27.75 40.84,-1.62 82.06,5.15 120.76,16.71 78.18,23.11 146.64,60.44 213.7,91.73 66.64,31.89 134.02,56.53 201.37,62.45 33.49,2.67 66.56,0.6 97.4,-7.22 30.71,-8.22 58.95,-22.13 82.81,-40.27 47.56,-36.98 78.02,-87.36 94.06,-135.96 16.35,-48.99 18.23,-96.86 12.83,-137.42 -5.28,-40.73 -17.6,-74.51 -30.46,-100.32 -12.9,-25.97 -26.52,-44.08 -36.35,-55.64 -4.77,-5.98 -8.98,-10 -11.62,-12.9 l -4.1,-4.26 4.1,4.26 c 2.65,2.9 6.86,6.92 11.62,12.87 9.87,11.55 23.52,29.63 36.57,55.55 13.02,25.77 25.55,59.45 31.35,100.29 5.86,40.65 4.75,88.78 -10.85,138.55 -15.37,49.4 -44.92,101.18 -92.82,140.49 -24.09,19.35 -52.9,34.59 -84.57,44.04 -31.79,9.18 -66.08,12.38 -100.87,10.7 -69.74,-3.72 -140.34,-26.84 -208.87,-56.46 -68.87,-28.87 -138.2,-63.44 -213.03,-81.42 -37.4,-9.11 -74.53,-12.96 -110.58,-9.22 -35.93,3.91 -70.52,13.94 -100.23,30.71 -60.13,32.21 -97.74,91.79 -102.39,150.45 -5.6,59.36 14.22,118.5 45.77,159.31 15.72,20.49 34.73,36.25 54.65,45.42 19.89,9.55 40.39,11.71 60.44,9.32 40.2,-5.31 70.09,-31.32 80.47,-60.88 10.44,-27.72 2.26,-60.41 -9.61,-80.97 -12.03,-21.61 -28.14,-31.67 -40.36,-35.34 -12.48,-3.14 -21.07,-1.68 -22.38,-5.18 z"
   id="path841"
   style="fill:url(#linearGradient3053);fill-opacity:1" />
   <path
   class="fil0"
   d="m 5742.14,1006.05 c 5.76,8.05 -5.5,24.44 -15.09,52.83 -4.48,14.32 -9.11,31.69 -9.29,52.77 -0.35,20.78 2.26,45.13 11.87,69.49 9.38,24.08 24.86,48.6 47.34,63.81 22.63,16.59 54.58,26.1 90.13,25.47 35.59,-0.89 75.21,-13.21 107.9,-36.92 32.12,-22.76 57.87,-60.19 71.39,-106.12 13.75,-45.7 14.42,-100.07 0.17,-152.32 -14.23,-52.08 -44.75,-104.6 -87.5,-150.37 -42.46,-46.5 -97.33,-85.84 -158.96,-118.56 -61.84,-32.04 -130.84,-55.7 -204.37,-69.83 -147.24,-28.52 -311.07,-18.72 -473.87,21.33 -163.41,39.18 -324.46,112.96 -484.75,197.98 -160.39,85.1 -313.64,177.18 -468.02,255.74 -77.21,39.18 -154.36,75.6 -233.05,105.14 -78.59,29.38 -158.86,51.5 -239.58,60.37 -80.37,8.92 -161.76,4.65 -236.2,-17.91 -74.29,-22.02 -142.24,-59.14 -196.23,-109.3 -53.5,-50.48 -92.56,-113.98 -106.88,-182.76 -6.72,-34.12 -7.83,-68.27 -4.75,-101.24 3.79,-32.98 12.06,-64.48 23.58,-94.02 12.19,-29.32 28.33,-56.15 47.11,-80.15 19.89,-23.11 42.04,-43.67 67.22,-58.75 25.28,-14.78 51.92,-25.44 79.35,-30.59 27.35,-5.16 54.46,-4.72 79.89,-0.45 50.8,8.6 95.58,32.81 125.57,66.77 29.79,33.62 44.08,77.47 40.1,114.49 -2.29,37.18 -17.26,67.38 -33.55,89.76 -16.71,22.44 -36.63,36.73 -54.17,44.14 -17.56,7.6 -32.27,9.14 -41.76,8.69 -9.57,-0.89 -14.22,-2.26 -14.2,-3.98 -0.31,-4.52 19.42,-3.98 47.15,-21.38 13.64,-8.57 28.9,-22.35 41.34,-42.5 12.03,-19.98 23.02,-46.21 23.21,-76.29 1.65,-29.92 -10.12,-61.82 -34.76,-88.9 -24.57,-26.6 -62.06,-46.53 -105.04,-53.28 -21.42,-3.38 -44.2,-3.59 -66.77,0.77 -22.5,4.36 -45.01,13.55 -66.21,25.91 -21.17,12.73 -40.04,30.26 -57.42,50.08 -16.29,20.86 -30.49,44.31 -41.48,70.23 -10.25,26.16 -17.69,54.2 -21.3,83.52 -2.8,29.34 -1.87,59.65 3.82,89.65 12.03,59.5 46.7,117.41 95.24,163.38 49.04,45.84 111.9,80.56 181.23,101.06 69.31,20.95 145.1,24.86 221.68,15.98 154.02,-17.79 306.22,-86.83 456.96,-166.56 151.25,-80.24 301.58,-175.63 461.04,-266.52 159.15,-90.59 321.94,-172.83 492.36,-220.96 169.3,-48.6 343.86,-67.71 509.08,-43 164.84,24.66 318.1,93.73 428.22,204.37 54.81,55.25 97.69,121.94 119.61,195.46 21.57,73.33 22.24,149.18 2.35,218.31 -19.56,68.84 -61.33,131.01 -117.92,169.97 -55.54,38.39 -118.24,55.16 -177.54,53.89 -59.36,-1.72 -115.75,-22.57 -155.74,-58.28 -41.57,-36.15 -60.89,-81.77 -69.26,-121.51 -16.13,-81.26 12.96,-144.92 42.3,-174.27 3.69,-3.76 7.25,-7.15 10.6,-10.22 3.63,-2.86 7.32,-5.18 10.6,-7.35 6.56,-4.39 12.45,-7.25 17.89,-8.56 10.5,-2.99 16.71,-2.23 19.32,1.53 z"
   id="path843"
   style="fill:url(#linearGradient3055);fill-opacity:1" />
   <path
   class="fil0"
   d="m 6338.04,751.22 c -3.24,1.08 -10.47,-8.78 -20.98,-27.97 -11.84,-18.65 -27.28,-46.69 -52.32,-79.15 -24.76,-32.56 -58.98,-69.39 -104.37,-105.61 -22.6,-18.14 -48.12,-36.03 -76.64,-52.58 -28.29,-16.84 -59.52,-32.68 -93.6,-46.15 -67.96,-27.28 -147.44,-46.63 -234.42,-55.32 -87.05,-8.94 -181.62,-7.25 -280.7,2.01 -99.03,9.93 -203.14,24.73 -308.65,51.08 -105.45,26.26 -213.07,60.38 -319.81,103.99 -106.98,43.07 -207.15,95.1 -300.44,150.45 -93.22,55.58 -178.6,116.27 -261.44,172.7 -82.69,56.59 -163.29,108.73 -243.5,150.26 -79.79,41.91 -160,72.63 -235.85,89.5 -75.65,17.79 -146.92,21.9 -208.86,18.04 -62.07,-4 -114.81,-17.28 -155.52,-33.35 -10.34,-3.63 -19.73,-7.93 -28.38,-12.32 -8.73,-4.36 -17,-8.06 -24.23,-12.32 -14.26,-8.98 -26.51,-16.1 -35.39,-23.4 -17.83,-14.64 -25.85,-23.61 -23.9,-26.41 1.9,-2.81 13.68,0.67 33.65,9.73 9.99,4.52 22.94,8.85 37.43,15.13 7.35,2.92 15.59,5.27 24.16,8.33 8.52,3.08 17.69,6.15 27.68,8.54 39.25,11.29 88.65,20.65 146.77,22.57 57.99,1.77 124.73,-2.62 196.57,-19.14 72.07,-15.59 148.45,-43.16 227.32,-81.83 79,-38.2 160.17,-86.68 244.74,-139.83 84.7,-52.94 173.3,-110.36 269.68,-162.17 96.52,-51.38 198.91,-99.56 306.58,-141.84 107.39,-42.97 215.01,-77.66 320.58,-105.16 105.45,-27.91 208.64,-49.73 308.11,-65.03 99.49,-14.8 195.9,-21.05 286.33,-15.44 90.37,5.48 174.3,23.19 247.22,51.19 36.54,13.85 69.92,30.52 100.17,48.54 30.35,17.79 57.41,37.3 81.18,57.38 47.72,39.97 82.45,81.81 105.61,118.95 23.49,37.11 35.17,69.36 41.98,91.09 5.51,22.37 6.43,34.44 3.24,35.52 z"
   id="path845"
   style="fill:url(#linearGradient3057);fill-opacity:1" />
   <path
   class="fil0"
   d="m 4028.19,572.48 c -1.31,3.5 -9.9,2.04 -22.38,5.18 -12.16,3.66 -28.26,13.72 -40.35,35.34 -11.85,20.56 -20.02,53.25 -9.62,80.97 10.41,29.57 40.29,55.57 80.47,60.88 20.08,2.39 40.58,0.23 60.44,-9.32 19.96,-9.17 38.93,-24.93 54.71,-45.42 31.51,-40.81 51.34,-99.95 45.74,-159.31 -4.65,-58.66 -42.29,-118.24 -102.42,-150.45 -29.66,-16.77 -64.27,-26.8 -100.23,-30.71 -36,-3.73 -73.15,0.12 -110.58,9.22 -74.79,17.98 -144.11,52.55 -213,81.42 -68.55,29.62 -139.12,52.74 -208.9,56.46 -34.72,1.68 -69.06,-1.52 -100.87,-10.7 -31.64,-9.45 -60.47,-24.7 -84.54,-44.04 -47.93,-39.31 -77.44,-91.09 -92.82,-140.49 -15.59,-49.78 -16.74,-97.9 -10.85,-138.55 5.76,-40.84 18.33,-74.52 31.35,-100.29 13.06,-25.91 26.71,-43.99 36.54,-55.55 4.77,-5.95 8.98,-9.97 11.64,-12.87 l 4.08,-4.26 -4.08,4.26 c -2.67,2.9 -6.88,6.92 -11.61,12.9 -9.86,11.55 -23.46,29.66 -36.34,55.64 -12.9,25.81 -25.18,59.59 -30.46,100.32 -5.41,40.56 -3.54,88.43 12.79,137.42 16.08,48.6 46.5,98.99 94.09,135.96 23.87,18.14 52.1,32.05 82.78,40.27 30.88,7.82 63.92,9.89 97.43,7.22 67.32,-5.92 134.7,-30.56 201.38,-62.45 67.09,-31.29 135.53,-68.62 213.66,-91.73 38.74,-11.55 79.96,-18.33 120.8,-16.71 40.64,1.85 80.96,10.47 117.63,27.75 36.86,16.64 69.61,42.58 94.22,74.33 24.82,31.35 40.48,69.61 46.46,107.89 11.49,76.8 -9.77,151.13 -51.25,207.22 -20.94,27.94 -48.08,51.46 -79.76,65.63 -31.48,14.7 -67.25,17.95 -98.19,12.44 -31.26,-5.6 -59.56,-19.69 -80.91,-39.57 -21.39,-20.08 -35.33,-44.68 -41.18,-69.71 -6.21,-26.09 -3,-50.12 3.47,-69.89 6.58,-19.86 16.64,-36.03 27.84,-48.67 22.24,-25.77 51.85,-34.65 69.8,-31.73 9.05,1.82 15.22,4.31 18.72,7.45 3.59,2.74 4.9,4.78 4.27,6.24 z"
   id="path847"
   style="fill:url(#linearGradient3059);fill-opacity:1" />
  </g>
 </g>
</svg>
